<svg width="20" height="20" viewBox="0 0 20 20" fill="none" xmlns="http://www.w3.org/2000/svg">
<path d="M19.66 8.25002L10.66 0.250016C10.4775 0.0896969 10.2429 0.00128174 10 0.00128174C9.75709 0.00128174 9.52249 0.0896969 9.34 0.250016L0.339997 8.25002C0.187033 8.38533 0.0791648 8.56423 0.0308962 8.76267C-0.0173724 8.96111 -0.0037274 9.16956 0.0699968 9.36002C0.142515 9.54795 0.270102 9.70961 0.436046 9.8238C0.601991 9.938 0.798556 9.99942 0.999997 10H2V19C2 19.2652 2.10535 19.5196 2.29289 19.7071C2.48043 19.8947 2.73478 20 3 20H17C17.2652 20 17.5196 19.8947 17.7071 19.7071C17.8946 19.5196 18 19.2652 18 19V10H19C19.2014 9.99942 19.398 9.938 19.5639 9.8238C19.7299 9.70961 19.8575 9.54795 19.93 9.36002C20.0037 9.16956 20.0174 8.96111 19.9691 8.76267C19.9208 8.56423 19.813 8.38533 19.66 8.25002ZM11 18H9V15C9 14.7348 9.10535 14.4804 9.29289 14.2929C9.48043 14.1054 9.73478 14 10 14C10.2652 14 10.5196 14.1054 10.7071 14.2929C10.8946 14.4804 11 14.7348 11 15V18ZM16 18H13V15C13 14.2044 12.6839 13.4413 12.1213 12.8787C11.5587 12.3161 10.7956 12 10 12C9.20435 12 8.44129 12.3161 7.87868 12.8787C7.31607 13.4413 7 14.2044 7 15V18H4V10H16V18ZM3.63 8.00002L10 2.34002L16.37 8.00002H3.63Z" fill="white"/>
</svg>
