<svg width="22" height="22" viewBox="0 0 22 22" fill="none" xmlns="http://www.w3.org/2000/svg">
<path d="M20.17 1.06C19.4532 0.936533 18.7274 0.87298 18 0.869999C15.5184 0.867965 13.0885 1.57957 11 2.92C8.90617 1.59717 6.47667 0.90303 4.00002 0.919999C3.27267 0.92298 2.54683 0.986533 1.83002 1.11C1.59523 1.15048 1.3826 1.27346 1.23044 1.45679C1.07827 1.64013 0.99656 1.87177 1.00002 2.11V14.11C0.997882 14.2569 1.02815 14.4025 1.08867 14.5364C1.1492 14.6703 1.23849 14.7893 1.3502 14.8847C1.4619 14.9802 1.59328 15.0499 1.73498 15.0888C1.87668 15.1278 2.02522 15.135 2.17002 15.11C3.60304 14.8619 5.07123 14.9031 6.48809 15.2311C7.90495 15.5591 9.24185 16.1674 10.42 17.02L10.54 17.09H10.65C10.7609 17.1362 10.8799 17.16 11 17.16C11.1202 17.16 11.2391 17.1362 11.35 17.09H11.46L11.58 17.02C12.75 16.1483 14.083 15.5203 15.5002 15.1734C16.9173 14.8264 18.3897 14.7674 19.83 15C19.9748 15.025 20.1234 15.0178 20.2651 14.9788C20.4068 14.9399 20.5381 14.8702 20.6498 14.7747C20.7616 14.6793 20.8508 14.5603 20.9114 14.4264C20.9719 14.2925 21.0022 14.1469 21 14V2C20.9896 1.77215 20.9016 1.55471 20.7507 1.38374C20.5997 1.21276 20.3948 1.09854 20.17 1.06ZM10 14.35C8.14991 13.3767 6.09054 12.8687 4.00002 12.87H3.00002V2.87C3.33308 2.8508 3.66697 2.8508 4.00002 2.87C6.13341 2.86764 8.22024 3.49369 10 4.67V14.35ZM19 12.91H18C15.9095 12.9087 13.8501 13.4167 12 14.39V4.67C13.7798 3.49369 15.8666 2.86764 18 2.87C18.3331 2.8508 18.667 2.8508 19 2.87V12.91ZM20.17 17.06C19.4532 16.9365 18.7274 16.873 18 16.87C15.5184 16.868 13.0885 17.5796 11 18.92C8.91154 17.5796 6.48166 16.868 4.00002 16.87C3.27267 16.873 2.54683 16.9365 1.83002 17.06C1.69985 17.0807 1.57505 17.1268 1.46279 17.1959C1.35053 17.265 1.25302 17.3555 1.17589 17.4624C1.09876 17.5693 1.04351 17.6903 1.01333 17.8186C0.983146 17.9469 0.978624 18.0799 1.00002 18.21C1.05084 18.4697 1.20251 18.6986 1.42181 18.8467C1.64111 18.9948 1.91016 19.0499 2.17002 19C3.60304 18.7519 5.07123 18.7931 6.48809 19.1211C7.90495 19.4491 9.24185 20.0574 10.42 20.91C10.5894 21.0306 10.7921 21.0954 11 21.0954C11.2079 21.0954 11.4107 21.0306 11.58 20.91C12.7582 20.0574 14.0951 19.4491 15.512 19.1211C16.9288 18.7931 18.397 18.7519 19.83 19C20.0899 19.0499 20.3589 18.9948 20.5782 18.8467C20.7975 18.6986 20.9492 18.4697 21 18.21C21.0214 18.0799 21.0169 17.9469 20.9867 17.8186C20.9565 17.6903 20.9013 17.5693 20.8242 17.4624C20.747 17.3555 20.6495 17.265 20.5373 17.1959C20.425 17.1268 20.3002 17.0807 20.17 17.06Z" fill="white"/>
</svg>
