<svg width="18" height="21" viewBox="0 0 18 21" fill="none" xmlns="http://www.w3.org/2000/svg">
<path d="M15 6.00001H14.65C14.8782 5.53277 14.9979 5.01999 15 4.50001C15.003 3.80333 14.7975 3.1217 14.4098 2.54284C14.0221 1.96398 13.4701 1.51439 12.8247 1.25195C12.1794 0.9895 11.4703 0.926209 10.7886 1.07022C10.107 1.21423 9.48405 1.55895 9 2.06001C8.51595 1.55895 7.89302 1.21423 7.21138 1.07022C6.52975 0.926209 5.82061 0.9895 5.17525 1.25195C4.5299 1.51439 3.97786 1.96398 3.59019 2.54284C3.20252 3.1217 2.99697 3.80333 3 4.50001C3.00213 5.01999 3.12178 5.53277 3.35 6.00001H3C2.20435 6.00001 1.44129 6.31608 0.87868 6.87869C0.316071 7.4413 0 8.20436 0 9.00001V11C0 11.2652 0.105357 11.5196 0.292893 11.7071C0.48043 11.8946 0.734784 12 1 12H2V18C2 18.7957 2.31607 19.5587 2.87868 20.1213C3.44129 20.6839 4.20435 21 5 21H13C13.7956 21 14.5587 20.6839 15.1213 20.1213C15.6839 19.5587 16 18.7957 16 18V12H17C17.2652 12 17.5196 11.8946 17.7071 11.7071C17.8946 11.5196 18 11.2652 18 11V9.00001C18 8.20436 17.6839 7.4413 17.1213 6.87869C16.5587 6.31608 15.7956 6.00001 15 6.00001ZM8 19H5C4.73478 19 4.48043 18.8947 4.29289 18.7071C4.10536 18.5196 4 18.2652 4 18V12H8V19ZM8 10H2V9.00001C2 8.73479 2.10536 8.48044 2.29289 8.2929C2.48043 8.10536 2.73478 8.00001 3 8.00001H8V10ZM8 6.00001H6.5C6.20333 6.00001 5.91332 5.91203 5.66665 5.74721C5.41997 5.58239 5.22771 5.34812 5.11418 5.07403C5.00065 4.79994 4.97094 4.49834 5.02882 4.20737C5.0867 3.9164 5.22956 3.64913 5.43934 3.43935C5.64912 3.22957 5.91639 3.08671 6.20736 3.02883C6.49834 2.97095 6.79994 3.00066 7.07403 3.11419C7.34811 3.22772 7.58238 3.41998 7.7472 3.66665C7.91203 3.91333 8 4.20333 8 4.50001V6.00001ZM10 4.50001C10 4.20333 10.088 3.91333 10.2528 3.66665C10.4176 3.41998 10.6519 3.22772 10.926 3.11419C11.2001 3.00066 11.5017 2.97095 11.7926 3.02883C12.0836 3.08671 12.3509 3.22957 12.5607 3.43935C12.7704 3.64913 12.9133 3.9164 12.9712 4.20737C13.0291 4.49834 12.9994 4.79994 12.8858 5.07403C12.7723 5.34812 12.58 5.58239 12.3334 5.74721C12.0867 5.91203 11.7967 6.00001 11.5 6.00001H10V4.50001ZM14 18C14 18.2652 13.8946 18.5196 13.7071 18.7071C13.5196 18.8947 13.2652 19 13 19H10V12H14V18ZM16 10H10V8.00001H15C15.2652 8.00001 15.5196 8.10536 15.7071 8.2929C15.8946 8.48044 16 8.73479 16 9.00001V10Z" fill="white"/>
</svg>
