<svg width="15" height="15" viewBox="0 0 15 15" fill="none" xmlns="http://www.w3.org/2000/svg">
<path d="M1.88 8.88C1.58526 9.15465 1.34885 9.48585 1.18488 9.85385C1.02091 10.2218 0.932745 10.6191 0.925638 11.0219C0.918531 11.4247 0.992629 11.8248 1.14351 12.1984C1.2944 12.5719 1.51898 12.9113 1.80385 13.1962C2.08873 13.481 2.42806 13.7056 2.80161 13.8565C3.17517 14.0074 3.57528 14.0815 3.97809 14.0744C4.38091 14.0673 4.77816 13.9791 5.14616 13.8151C5.51415 13.6512 5.84536 13.4147 6.12 13.12C6.68181 12.5575 6.99736 11.795 6.99736 11C6.99736 10.205 6.68181 9.4425 6.12 8.88C5.54773 8.33699 4.7889 8.03428 4 8.03428C3.21111 8.03428 2.45228 8.33699 1.88 8.88ZM4.71 11.71C4.61704 11.8037 4.50644 11.8781 4.38458 11.9289C4.26272 11.9797 4.13202 12.0058 4 12.0058C3.86799 12.0058 3.73729 11.9797 3.61543 11.9289C3.49357 11.8781 3.38297 11.8037 3.29 11.71C3.19628 11.617 3.12188 11.5064 3.07111 11.3846C3.02034 11.2627 2.99421 11.132 2.99421 11C2.99421 10.868 3.02034 10.7373 3.07111 10.6154C3.12188 10.4936 3.19628 10.383 3.29 10.29C3.38297 10.1963 3.49357 10.1219 3.61543 10.0711C3.73729 10.0203 3.86799 9.9942 4 9.9942C4.13202 9.9942 4.26272 10.0203 4.38458 10.0711C4.50644 10.1219 4.61704 10.1963 4.71 10.29C4.80373 10.383 4.87813 10.4936 4.9289 10.6154C4.97966 10.7373 5.0058 10.868 5.0058 11C5.0058 11.132 4.97966 11.2627 4.9289 11.3846C4.87813 11.5064 4.80373 11.617 4.71 11.71ZM4 4C3.73479 4 3.48043 4.10536 3.2929 4.29289C3.10536 4.48043 3 4.73478 3 5C3 5.26522 3.10536 5.51957 3.2929 5.70711C3.48043 5.89464 3.73479 6 4 6C5.32609 6 6.59786 6.52678 7.53554 7.46447C8.47322 8.40215 9 9.67392 9 11C9 11.2652 9.10536 11.5196 9.2929 11.7071C9.48043 11.8946 9.73479 12 10 12C10.2652 12 10.5196 11.8946 10.7071 11.7071C10.8946 11.5196 11 11.2652 11 11C11 9.14348 10.2625 7.36301 8.94975 6.05025C7.637 4.7375 5.85652 4 4 4ZM4 0C3.73479 0 3.48043 0.105357 3.2929 0.292893C3.10536 0.48043 3 0.734784 3 1C3 1.26522 3.10536 1.51957 3.2929 1.70711C3.48043 1.89464 3.73479 2 4 2C6.38695 2 8.67614 2.94821 10.364 4.63604C12.0518 6.32387 13 8.61305 13 11C13 11.2652 13.1054 11.5196 13.2929 11.7071C13.4804 11.8946 13.7348 12 14 12C14.2652 12 14.5196 11.8946 14.7071 11.7071C14.8946 11.5196 15 11.2652 15 11C15 8.08262 13.8411 5.28473 11.7782 3.22183C9.71528 1.15893 6.91739 0 4 0Z" fill="white"/>
</svg>
