<svg width="20" height="21" viewBox="0 0 20 21" fill="none" xmlns="http://www.w3.org/2000/svg">
<path d="M6.51003 11.48C6.31225 11.48 6.11891 11.5387 5.95446 11.6485C5.79001 11.7584 5.66184 11.9146 5.58615 12.0973C5.51046 12.2801 5.49066 12.4811 5.52924 12.6751C5.56783 12.8691 5.66307 13.0473 5.80292 13.1871C5.94277 13.327 6.12096 13.4222 6.31494 13.4608C6.50892 13.4994 6.70998 13.4796 6.89271 13.4039C7.07544 13.3282 7.23162 13.2 7.3415 13.0356C7.45138 12.8711 7.51003 12.6778 7.51003 12.48C7.51003 12.2148 7.40467 11.9604 7.21713 11.7729C7.0296 11.5854 6.77524 11.48 6.51003 11.48ZM6.51003 7.00001C6.31225 7.00001 6.11891 7.05866 5.95446 7.16854C5.79001 7.27842 5.66184 7.4346 5.58615 7.61732C5.51046 7.80005 5.49066 8.00112 5.52924 8.1951C5.56783 8.38908 5.66307 8.56726 5.80292 8.70711C5.94277 8.84697 6.12096 8.94221 6.31494 8.98079C6.50892 9.01938 6.70998 8.99957 6.89271 8.92389C7.07544 8.8482 7.23162 8.72003 7.3415 8.55558C7.45138 8.39113 7.51003 8.19779 7.51003 8.00001C7.51003 7.73479 7.40467 7.48044 7.21713 7.2929C7.0296 7.10536 6.77524 7.00001 6.51003 7.00001ZM10 9.00001C9.73481 9.00001 9.48046 9.10536 9.29292 9.2929C9.10538 9.48044 9.00003 9.73479 9.00003 10V11C9.00003 11.2652 9.10538 11.5196 9.29292 11.7071C9.48046 11.8947 9.73481 12 10 12C10.2652 12 10.5196 11.8947 10.7071 11.7071C10.8947 11.5196 11 11.2652 11 11V10C11 9.73479 10.8947 9.48044 10.7071 9.2929C10.5196 9.10536 10.2652 9.00001 10 9.00001ZM18.5 7.57001C18.1551 7.37152 17.774 7.24366 17.3792 7.19387C16.9843 7.14408 16.5835 7.17336 16.2 7.28001C15.801 7.3869 15.4293 7.57783 15.11 7.84001L3.51003 1.13001C3.35801 1.04224 3.18556 0.996033 3.01003 0.996033C2.83449 0.996033 2.66205 1.04224 2.51003 1.13001C2.35556 1.21683 2.22694 1.34314 2.13733 1.49601C2.04772 1.64888 2.00033 1.82281 2.00003 2.00001V15.17C1.40988 15.3691 0.898198 15.7504 0.53875 16.259C0.179302 16.7676 -0.00933812 17.3773 2.74225e-05 18C-0.000250663 18.782 0.304815 19.5332 0.850237 20.0935C1.39566 20.6539 2.13832 20.9792 2.92003 21H3.50003C6.77676 20.9923 9.99312 20.1177 12.8225 18.465C15.652 16.8123 17.9937 14.4404 19.61 11.59C19.9833 10.908 20.0773 10.1077 19.8721 9.35781C19.6669 8.60789 19.1786 7.96693 18.51 7.57001H18.5ZM4.00003 3.73001L13.89 9.44001C12.7928 11.0772 11.326 12.4335 9.60802 13.3993C7.89002 14.3651 5.969 14.9135 4.00003 15V3.73001ZM17.87 10.61C16.3855 13.2257 14.2174 15.3883 11.598 16.8662C8.97859 18.3441 6.00651 19.0817 3.00003 19C2.73481 19 2.48046 18.8947 2.29292 18.7071C2.10538 18.5196 2.00003 18.2652 2.00003 18C1.99924 17.866 2.0254 17.7332 2.07693 17.6096C2.12847 17.4859 2.20434 17.3738 2.30003 17.28C2.48789 17.0989 2.7391 16.9984 3.00003 17H3.51003C6.07774 16.999 8.59913 16.3161 10.8164 15.0212C13.0337 13.7263 14.8674 11.8658 16.13 9.63001C16.1907 9.52032 16.2737 9.42451 16.3736 9.34875C16.4734 9.27298 16.588 9.21891 16.71 9.19001C16.9622 9.1208 17.2314 9.15311 17.46 9.28001C17.6895 9.40333 17.8617 9.61131 17.9402 9.8597C18.0186 10.1081 17.997 10.3773 17.88 10.61H17.87Z" fill="white"/>
</svg>
