<svg width="20" height="16" viewBox="0 0 20 16" fill="none" xmlns="http://www.w3.org/2000/svg">
<path d="M17 5.5H16.68L15.43 2.38C15.2068 1.82525 14.8228 1.34988 14.3275 1.0149C13.8321 0.67992 13.248 0.500613 12.65 0.499997H6.65C5.95529 0.498009 5.28142 0.737188 4.74342 1.17671C4.20541 1.61623 3.83662 2.22885 3.7 2.91L3.18 5.5H3C2.20435 5.5 1.44129 5.81607 0.87868 6.37868C0.316071 6.94129 0 7.70435 0 8.5V11.5C0 11.7652 0.105357 12.0196 0.292893 12.2071C0.48043 12.3946 0.734784 12.5 1 12.5H2C2 13.2956 2.31607 14.0587 2.87868 14.6213C3.44129 15.1839 4.20435 15.5 5 15.5C5.79565 15.5 6.55871 15.1839 7.12132 14.6213C7.68393 14.0587 8 13.2956 8 12.5H12C12 13.2956 12.3161 14.0587 12.8787 14.6213C13.4413 15.1839 14.2044 15.5 15 15.5C15.7956 15.5 16.5587 15.1839 17.1213 14.6213C17.6839 14.0587 18 13.2956 18 12.5H19C19.2652 12.5 19.5196 12.3946 19.7071 12.2071C19.8946 12.0196 20 11.7652 20 11.5V8.5C20 7.70435 19.6839 6.94129 19.1213 6.37868C18.5587 5.81607 17.7956 5.5 17 5.5ZM11 2.5H12.65C12.8486 2.50179 13.0421 2.56267 13.206 2.67487C13.3698 2.78707 13.4965 2.94551 13.57 3.13L14.52 5.5H11V2.5ZM5.66 3.3C5.70675 3.07072 5.83242 2.8651 6.01514 2.71892C6.19786 2.57275 6.42605 2.49528 6.66 2.5H9V5.5H5.22L5.66 3.3ZM5 13.5C4.80222 13.5 4.60888 13.4413 4.44443 13.3315C4.27998 13.2216 4.15181 13.0654 4.07612 12.8827C4.00043 12.7 3.98063 12.4989 4.01921 12.3049C4.0578 12.1109 4.15304 11.9327 4.29289 11.7929C4.43275 11.653 4.61093 11.5578 4.80491 11.5192C4.99889 11.4806 5.19996 11.5004 5.38268 11.5761C5.56541 11.6518 5.72159 11.78 5.83147 11.9444C5.94135 12.1089 6 12.3022 6 12.5C6 12.7652 5.89464 13.0196 5.70711 13.2071C5.51957 13.3946 5.26522 13.5 5 13.5ZM15 13.5C14.8022 13.5 14.6089 13.4413 14.4444 13.3315C14.28 13.2216 14.1518 13.0654 14.0761 12.8827C14.0004 12.7 13.9806 12.4989 14.0192 12.3049C14.0578 12.1109 14.153 11.9327 14.2929 11.7929C14.4327 11.653 14.6109 11.5578 14.8049 11.5192C14.9989 11.4806 15.2 11.5004 15.3827 11.5761C15.5654 11.6518 15.7216 11.78 15.8315 11.9444C15.9414 12.1089 16 12.3022 16 12.5C16 12.7652 15.8946 13.0196 15.7071 13.2071C15.5196 13.3946 15.2652 13.5 15 13.5ZM18 10.5H17.22C16.9388 10.1906 16.5961 9.94347 16.2138 9.77433C15.8315 9.60519 15.418 9.51782 15 9.51782C14.582 9.51782 14.1685 9.60519 13.7862 9.77433C13.4039 9.94347 13.0612 10.1906 12.78 10.5H7.22C6.93882 10.1906 6.59609 9.94347 6.21378 9.77433C5.83148 9.60519 5.41805 9.51782 5 9.51782C4.58195 9.51782 4.16852 9.60519 3.78622 9.77433C3.40391 9.94347 3.06118 10.1906 2.78 10.5H2V8.5C2 8.23478 2.10536 7.98043 2.29289 7.79289C2.48043 7.60535 2.73478 7.5 3 7.5H17C17.2652 7.5 17.5196 7.60535 17.7071 7.79289C17.8946 7.98043 18 8.23478 18 8.5V10.5Z" fill="white"/>
</svg>
